# Blender v2.93.4 OBJ File: 'KBuilding3.blend'
# www.blender.org
o Cube.002_Cube.005
v -5.824342 12.204032 1.148297
v -5.824342 14.500627 1.148297
v -5.824342 12.204032 -1.148297
v -5.824342 14.500627 -1.148297
v 5.824342 12.204032 1.148297
v 5.824342 14.500627 1.148297
v 5.824342 12.204032 -1.148297
v 5.824342 14.500627 -1.148297
v -14.044947 -0.021976 3.866915
v -14.044947 20.777466 3.866915
v -14.044947 -0.021976 -3.868473
v -14.044947 20.777466 -3.868473
v -5.665035 -0.021976 3.866915
v -5.665035 26.726635 3.866915
v -5.665035 -0.021976 -3.868473
v -5.665035 26.726635 -3.868473
v 5.688147 0.036828 4.283129
v 5.688147 28.330376 4.283129
v 5.688147 0.036828 -4.284687
v 5.688147 28.330376 -4.284687
v 14.969848 0.036828 4.283129
v 14.969848 34.279545 4.283129
v 14.969848 0.036828 -4.284687
v 14.969848 34.279545 -4.284687
vt 0.907935 0.926892
vt 0.865005 0.883963
vt 0.907935 0.883963
vt 0.820713 0.875007
vt 0.863643 0.657263
vt 0.863643 0.875007
vt 0.950864 0.926892
vt 0.907935 0.883963
vt 0.950864 0.883963
vt 0.906572 0.875007
vt 0.949501 0.657263
vt 0.949501 0.875007
vt 0.906572 0.875007
vt 0.863643 0.657263
vt 0.906572 0.657263
vt 0.949501 0.657263
vt 0.992430 0.866224
vt 0.949501 0.866224
vt 0.660559 0.918295
vt 0.515965 0.529501
vt 0.660559 0.529501
vt 0.989404 0.389416
vt 0.832762 0.000621
vt 0.989404 0.000621
vt 0.820714 1.000621
vt 0.676120 0.500621
vt 0.820714 0.500621
vt 0.832762 0.000621
vt 0.676120 0.389416
vt 0.676120 0.000621
vt 0.965308 0.657263
vt 0.820713 0.500621
vt 0.965308 0.500621
vt 0.329122 0.640706
vt 0.473716 0.822295
vt 0.329122 0.822295
vt 0.676119 0.529501
vt 0.515965 0.000621
vt 0.676119 0.000621
vt 0.355810 0.529499
vt 0.182312 0.000621
vt 0.355810 0.000621
vt 0.515965 0.640706
vt 0.355811 0.000621
vt 0.515965 0.000621
vt 0.182312 0.000621
vt 0.008813 0.529501
vt 0.008813 0.000621
vt 0.329122 0.814204
vt 0.168967 0.640706
vt 0.329122 0.640706
vt 0.008813 0.640706
vt 0.168967 0.838472
vt 0.008813 0.838472
vt 0.865005 0.926892
vt 0.820713 0.657263
vt 0.907935 0.926892
vt 0.906572 0.657263
vt 0.863643 0.875007
vt 0.992430 0.657263
vt 0.515965 0.918295
vt 0.832762 0.500621
vt 0.676120 1.000621
vt 0.832762 0.500621
vt 0.820713 0.657263
vt 0.473716 0.640706
vt 0.515965 0.529501
vt 0.182312 0.640705
vt 0.355811 0.640706
vt 0.182312 0.640706
vt 0.168967 0.814204
vt 0.168967 0.640706
vn -1.0000 0.0000 0.0000
vn 0.0000 0.0000 -1.0000
vn 1.0000 0.0000 0.0000
vn 0.0000 0.0000 1.0000
vn 0.0000 -1.0000 0.0000
vn 0.0000 1.0000 0.0000
vn -0.5789 0.8154 0.0000
vn -0.5396 0.8419 0.0000
s off
f 2/1/1 3/2/1 1/3/1
f 4/4/2 7/5/2 3/6/2
f 8/7/3 5/8/3 7/9/3
f 6/10/4 1/11/4 5/12/4
f 7/13/5 1/14/5 3/15/5
f 4/16/6 6/17/6 8/18/6
f 10/19/1 11/20/1 9/21/1
f 12/22/2 15/23/2 11/24/2
f 16/25/3 13/26/3 15/27/3
f 13/28/4 10/29/4 9/30/4
f 15/31/5 9/32/5 11/33/5
f 12/34/7 14/35/7 16/36/7
f 18/37/1 19/38/1 17/39/1
f 20/40/2 23/41/2 19/42/2
f 24/43/3 21/44/3 23/45/3
f 21/46/4 18/47/4 17/48/4
f 23/49/5 17/50/5 19/51/5
f 20/52/8 22/53/8 24/54/8
f 2/1/1 4/55/1 3/2/1
f 4/4/2 8/56/2 7/5/2
f 8/7/3 6/57/3 5/8/3
f 6/10/4 2/58/4 1/11/4
f 7/13/5 5/59/5 1/14/5
f 4/16/6 2/60/6 6/17/6
f 10/19/1 12/61/1 11/20/1
f 12/22/2 16/62/2 15/23/2
f 16/25/3 14/63/3 13/26/3
f 13/28/4 14/64/4 10/29/4
f 15/31/5 13/65/5 9/32/5
f 12/34/7 10/66/7 14/35/7
f 18/37/1 20/67/1 19/38/1
f 20/40/2 24/68/2 23/41/2
f 24/43/3 22/69/3 21/44/3
f 21/46/4 22/70/4 18/47/4
f 23/49/5 21/71/5 17/50/5
f 20/52/8 18/72/8 22/53/8
