# Blender v2.93.4 OBJ File: 'BasicPlatformFloatHalo.blend'
# www.blender.org
o FloatingPlatformHalo_Cube.003
v 0.342489 0.863583 -0.910186
v 0.437568 1.052509 -0.861912
v -0.476879 0.877886 -0.910186
v -0.565307 1.070015 -0.861912
v -1.295665 0.319394 -0.666454
v -1.204276 0.296850 -0.470996
v -0.998930 0.246195 -0.422722
v -0.834254 0.205572 -0.557983
v -0.834254 0.205572 -0.774925
v -0.998930 0.246195 -0.910186
v -1.204277 0.296850 -0.861912
v -1.072787 -0.742171 -0.666454
v -0.998182 -0.684777 -0.470996
v -0.830547 -0.555813 -0.422722
v -0.696113 -0.452393 -0.557983
v -0.696113 -0.452393 -0.774925
v -0.830547 -0.555813 -0.910186
v -0.998182 -0.684777 -0.861912
v -0.103861 -1.229794 -0.666454
v -0.102218 -1.135681 -0.470996
v -0.098527 -0.924210 -0.422722
v -0.095567 -0.754624 -0.557983
v -0.095567 -0.754624 -0.774925
v -0.098527 -0.924210 -0.910186
v -0.102218 -1.135681 -0.861912
v 0.881493 -0.776284 -0.666454
v 0.808937 -0.716321 -0.470996
v 0.645904 -0.581586 -0.422722
v 0.515162 -0.473536 -0.557983
v 0.515162 -0.473536 -0.774925
v 0.645904 -0.581585 -0.910186
v 0.808937 -0.716321 -0.861912
v 1.141284 0.276855 -0.666454
v 1.049165 0.257515 -0.470996
v 0.842175 0.214057 -0.422722
v 0.676182 0.179207 -0.557983
v 0.676182 0.179207 -0.774925
v 0.842175 0.214057 -0.910186
v 1.049165 0.257515 -0.861912
v 0.479883 1.136590 -0.666454
v 0.437568 1.052509 -0.470996
v 0.342489 0.863583 -0.422722
v 0.266241 0.712075 -0.557983
v 0.266241 0.712076 -0.774925
v 0.342489 0.863583 -0.910186
v 0.437568 1.052509 -0.861912
v -0.604661 1.155521 -0.666454
v -0.565307 1.070015 -0.470996
v -0.476879 0.877886 -0.422722
v -0.405965 0.723809 -0.557983
v -0.405965 0.723809 -0.774925
v -0.476879 0.877886 -0.910186
v -0.565307 1.070015 -0.861912
v -2.095910 -0.001809 1.829616
v -1.878832 0.621723 1.612539
v -2.095910 -0.001809 -0.170384
v -1.878832 0.621723 0.046693
v 2.043348 -0.001809 1.829616
v 1.826271 0.621723 1.612539
v 2.043348 -0.001809 -0.170384
v 1.826271 0.621723 0.046693
v -2.095910 0.478329 1.829616
v -2.095910 0.478329 -0.170384
v 2.043348 0.478329 -0.170384
v 2.043348 0.478329 1.829616
v -2.310983 -0.001809 0.829616
v -2.095910 0.238260 1.829616
v -2.310983 0.478329 0.829616
v -2.095910 0.238260 -0.170384
v -2.310983 0.238260 0.829616
v 2.043348 0.238260 -0.170384
v 2.249389 -0.001809 0.829616
v 2.249388 0.478330 0.829616
v 2.043348 0.238260 1.829616
v 2.249389 0.238260 0.829616
v -2.310983 -0.001809 0.829616
v -2.310983 -0.001809 0.829616
v -2.095910 -0.001809 1.829616
v -2.095910 0.238260 1.829616
v -2.095910 0.238260 1.829616
v -2.095910 0.478329 1.829616
v -2.310983 0.478329 0.829616
v -2.310983 0.478329 0.829616
v -2.095910 0.478329 -0.170384
v -2.095910 0.238260 -0.170384
v -2.095910 0.238260 -0.170384
v -2.095910 -0.001809 -0.170384
v -2.310983 0.238260 0.829616
v -2.310983 0.238260 0.829616
v -2.310983 0.238260 0.829616
vt 0.509200 0.844961
vt 0.541917 0.921696
vt 0.509200 0.914734
vt 0.659808 0.653909
vt 0.611445 0.824542
vt 0.610202 0.657787
vt 0.191891 0.750946
vt 0.228743 0.606752
vt 0.209660 0.742633
vt 0.383782 0.710030
vt 0.419636 0.591203
vt 0.418789 0.703223
vt 0.474145 0.703454
vt 0.474993 0.591435
vt 0.508166 0.710550
vt 0.155039 0.606752
vt 0.191891 0.750946
vt 0.174123 0.742633
vt 0.711195 0.824196
vt 0.709952 0.657441
vt 0.761097 0.923010
vt 0.810999 0.839256
vt 0.810999 0.916833
vt 0.215248 0.584633
vt 0.293189 0.546279
vt 0.384815 0.573487
vt 0.421541 0.539625
vt 0.473703 0.880967
vt 0.418315 0.829138
vt 0.473703 0.829138
vt 0.418315 0.880967
vt 0.383782 0.817947
vt 0.090593 0.546280
vt 0.168534 0.584633
vt 0.711195 0.839256
vt 0.711195 0.916833
vt 0.761097 0.756619
vt 0.761097 0.839116
vt 0.369133 0.584633
vt 0.294128 0.510617
vt 0.508236 0.943647
vt 0.508236 0.881123
vt 0.473703 0.932262
vt 0.383782 0.943647
vt 0.383782 0.881123
vt 0.014649 0.584633
vt 0.089654 0.510617
vt 0.558803 0.657113
vt 0.610202 0.825904
vt 0.560158 0.836296
vt 0.383782 0.750946
vt 0.354469 0.606752
vt 0.835581 0.646796
vt 0.802379 0.529177
vt 0.836593 0.511113
vt 0.801549 0.640490
vt 0.747022 0.528956
vt 0.711195 0.646300
vt 0.712206 0.510617
vt 0.029313 0.606752
vt 0.000000 0.750946
vt 0.510453 0.826241
vt 0.610202 0.524749
vt 0.608948 0.660213
vt 0.320083 0.851600
vt 0.366438 0.742633
vt 0.802379 0.730590
vt 0.746192 0.640270
vt 0.747022 0.730369
vt 0.063699 0.851600
vt 0.017344 0.742633
vt 0.510453 0.525086
vt 0.509200 0.660550
vt 0.610202 0.884146
vt 0.698982 0.934048
vt 0.613601 0.934048
vt 0.327045 0.884318
vt 0.250310 0.851600
vt 0.927638 0.476718
vt 0.864367 0.442184
vt 0.921600 0.442184
vt 0.921600 0.386797
vt 0.864367 0.386797
vt 0.927638 0.352264
vt 0.698982 0.834244
vt 0.613601 0.834244
vt 0.611445 0.525285
vt 0.661152 0.510617
vt 0.241645 0.884318
vt 0.419636 0.791331
vt 0.384815 0.817427
vt 0.474993 0.791562
vt 0.509200 0.817947
vt 0.133473 0.851600
vt 0.142137 0.884318
vt 0.711195 0.524939
vt 0.918289 0.766387
vt 0.959145 0.510644
vt 0.959145 0.766414
vt 0.898724 0.352263
vt 0.857875 0.352264
vt 0.898724 0.000001
vt 0.857826 0.254587
vt 0.817014 0.510341
vt 0.816965 0.254591
vt 0.877441 0.510618
vt 0.918289 0.510618
vt 0.877441 0.862880
vt 0.388062 0.255309
vt 0.776104 0.255309
vt 0.406363 0.510617
vt 0.325793 0.428129
vt 0.062189 0.082488
vt 0.325612 0.082106
vt 0.351633 0.055422
vt 0.369761 0.000000
vt 0.388062 0.255309
vt 0.036349 0.055422
vt 0.036349 0.455195
vt 0.017533 0.510617
vt 0.000000 0.255309
vt 0.351633 0.455195
vt 0.980427 0.000027
vt 0.939572 0.255770
vt 0.939572 0.000000
vt 1.000000 0.510617
vt 0.959145 0.765265
vt 0.959145 0.510689
vt 0.939572 0.255869
vt 0.980427 0.510372
vt 0.939572 0.510444
vt 0.776153 0.510344
vt 0.776104 0.254595
vt 0.817014 0.000004
vt 0.776153 0.000008
vt 0.857875 0.000000
vt 0.541917 0.836296
vt 0.661152 0.834244
vt 0.509200 0.574007
vt 0.387136 0.510617
vt 0.810999 0.762971
vt 0.418315 0.932262
vt 0.711195 0.762971
vt 0.560158 0.510617
vt 0.836593 0.756619
vt 0.712206 0.756124
vt 0.056737 0.884318
vt 0.702536 0.884146
vt 0.857875 0.476718
vt 0.857875 0.352264
vt 0.918289 0.510617
vt 0.857875 0.000001
vt 0.939572 0.000000
vt 0.939572 0.352263
vt 0.857875 0.510337
vt 0.918289 0.862881
vt 0.836593 0.862880
vt 0.836593 0.510617
vt 0.406362 0.000000
vt 0.758572 0.000000
vt 0.758572 0.510617
vt 0.062370 0.428511
vt 0.369760 0.510617
vt 0.017533 0.000000
vt 0.980427 0.255797
vt 1.000000 0.765193
vt 0.980427 0.255797
vn 0.0043 0.2455 -0.9694
vn -0.8978 -0.1885 0.3980
vn -0.2403 -0.0505 0.9694
vn 0.6486 0.1362 0.7488
vn 0.9787 0.2055 0.0000
vn 0.6486 0.1362 -0.7488
vn -0.2403 -0.0505 -0.9694
vn -0.8978 -0.1885 -0.3980
vn -0.4124 -0.8195 0.3980
vn -0.1104 -0.2194 0.9694
vn 0.2980 0.5920 0.7488
vn 0.4495 0.8933 0.0000
vn 0.2980 0.5920 -0.7488
vn -0.1104 -0.2194 -0.9694
vn -0.4124 -0.8195 -0.3980
vn 0.3835 -0.8333 0.3980
vn 0.1027 -0.2231 0.9694
vn -0.2771 0.6021 0.7488
vn -0.4181 0.9084 -0.0000
vn -0.2771 0.6021 -0.7488
vn 0.1027 -0.2231 -0.9694
vn 0.3835 -0.8333 -0.3980
vn 0.8907 -0.2197 0.3980
vn 0.2384 -0.0588 0.9694
vn -0.6435 0.1587 0.7488
vn -0.9709 0.2395 0.0000
vn -0.6435 0.1587 -0.7488
vn 0.2384 -0.0588 -0.9694
vn 0.8907 -0.2197 -0.3980
vn 0.7271 0.5594 0.3980
vn 0.1946 0.1497 0.9694
vn -0.5253 -0.4041 0.7488
vn -0.7926 -0.6097 0.0000
vn -0.5253 -0.4041 -0.7488
vn 0.1946 0.1497 -0.9694
vn 0.7271 0.5594 -0.3980
vn 0.0160 0.9172 0.3980
vn 0.0043 0.2455 0.9694
vn -0.0116 -0.6627 0.7488
vn -0.0175 -0.9998 -0.0000
vn -0.0116 -0.6627 -0.7488
vn 0.0160 0.9172 -0.3980
vn -0.7071 0.5844 0.3980
vn -0.1893 0.1564 0.9694
vn 0.5109 -0.4222 0.7488
vn 0.7708 -0.6370 -0.0000
vn 0.5109 -0.4222 -0.7488
vn -0.1893 0.1564 -0.9694
vn -0.7071 0.5844 -0.3980
vn -0.9776 0.0000 -0.2103
vn 0.0000 0.0000 -1.0000
vn 0.9794 0.0000 0.2018
vn 0.0000 0.0000 1.0000
vn -0.0000 -1.0000 -0.0000
vn 0.0000 1.0000 0.0000
vn -0.4751 0.8740 -0.1022
vn 0.0000 0.8344 -0.5512
vn 0.4780 0.8728 0.0985
vn 0.0000 0.8344 0.5512
vn -0.9776 0.0000 0.2103
vn 0.9794 0.0000 -0.2018
vn -0.4751 0.8740 0.1022
vn -0.3149 0.9491 0.0000
vn 0.4780 0.8728 -0.0985
vn 0.3210 0.9471 0.0000
s off
f 3/1/1 2/2/1 1/3/1
f 5/4/2 13/5/2 6/6/2
f 6/7/3 14/8/3 7/9/3
f 7/10/4 15/11/4 8/12/4
f 15/11/5 9/13/5 8/12/5
f 16/14/6 10/15/6 9/13/6
f 17/16/7 11/17/7 10/18/7
f 18/19/8 5/4/8 11/20/8
f 12/21/9 20/22/9 13/23/9
f 13/24/10 21/25/10 14/8/10
f 14/26/11 22/27/11 15/11/11
f 22/28/12 16/29/12 15/30/12
f 23/31/13 17/32/13 16/29/13
f 24/33/14 18/34/14 17/16/14
f 25/35/15 12/21/15 18/36/15
f 26/37/16 20/22/16 19/38/16
f 27/39/17 21/25/17 20/40/17
f 28/41/18 22/28/18 21/42/18
f 29/43/19 23/31/19 22/28/19
f 23/31/20 31/44/20 24/45/20
f 24/33/21 32/46/21 25/47/21
f 25/35/22 26/37/22 19/38/22
f 33/48/23 27/49/23 26/50/23
f 34/51/24 28/52/24 27/39/24
f 35/53/25 29/54/25 28/55/25
f 36/56/26 30/57/26 29/54/26
f 30/57/27 38/58/27 31/59/27
f 31/60/28 39/61/28 32/46/28
f 32/62/29 33/48/29 26/50/29
f 33/48/30 41/63/30 34/64/30
f 34/51/31 42/65/31 35/66/31
f 35/53/32 43/67/32 36/56/32
f 43/67/33 37/68/33 36/56/33
f 44/69/34 38/58/34 37/68/34
f 45/70/35 39/61/35 38/71/35
f 46/72/36 33/48/36 39/73/36
f 40/74/37 48/75/37 41/76/37
f 41/77/38 49/78/38 42/65/38
f 42/79/39 50/80/39 43/81/39
f 50/80/40 44/82/40 43/81/40
f 51/83/41 45/84/41 44/82/41
f 53/85/42 40/74/42 46/86/42
f 5/4/43 48/87/43 47/88/43
f 6/7/44 49/78/44 48/89/44
f 7/10/45 50/90/45 49/91/45
f 8/12/46 51/92/46 50/90/46
f 51/92/47 10/15/47 52/93/47
f 52/94/48 11/17/48 53/95/48
f 53/96/49 5/4/49 47/88/49
f 83/97/50 69/98/50 90/99/50
f 71/100/51 60/101/51 85/102/51
f 73/103/52 74/104/52 75/105/52
f 79/106/53 78/107/53 74/108/53
f 76/109/54 72/110/54 78/111/54
f 57/112/55 59/113/55 61/114/55
f 57/115/56 84/116/56 82/117/56
f 61/118/57 84/116/57 57/115/57
f 59/119/58 65/120/58 73/121/58
f 55/122/59 65/120/59 59/119/59
f 88/123/50 56/124/50 77/125/50
f 80/126/60 66/127/60 54/128/60
f 67/129/60 68/130/60 70/131/60
f 75/105/52 58/132/52 72/133/52
f 71/134/61 72/133/61 60/135/61
f 64/136/61 75/105/61 71/134/61
f 3/1/1 4/137/1 2/2/1
f 5/4/2 12/138/2 13/5/2
f 6/7/3 13/24/3 14/8/3
f 7/10/4 14/26/4 15/11/4
f 15/11/5 16/14/5 9/13/5
f 16/14/6 17/139/6 10/15/6
f 17/16/7 18/34/7 11/17/7
f 18/19/8 12/138/8 5/4/8
f 12/21/9 19/38/9 20/22/9
f 13/24/10 20/40/10 21/25/10
f 14/26/11 21/140/11 22/27/11
f 22/28/12 23/31/12 16/29/12
f 23/31/13 24/45/13 17/32/13
f 24/33/14 25/47/14 18/34/14
f 25/35/15 19/38/15 12/21/15
f 26/37/16 27/141/16 20/22/16
f 27/39/17 28/52/17 21/25/17
f 28/41/18 29/43/18 22/28/18
f 29/43/19 30/142/19 23/31/19
f 23/31/20 30/142/20 31/44/20
f 24/33/21 31/60/21 32/46/21
f 25/35/22 32/143/22 26/37/22
f 33/48/23 34/64/23 27/49/23
f 34/51/24 35/66/24 28/52/24
f 35/53/25 36/56/25 29/54/25
f 36/56/26 37/68/26 30/57/26
f 30/57/27 37/68/27 38/58/27
f 31/60/28 38/71/28 39/61/28
f 32/62/29 39/73/29 33/48/29
f 33/48/30 40/144/30 41/63/30
f 34/51/31 41/77/31 42/65/31
f 35/53/32 42/145/32 43/67/32
f 43/67/33 44/69/33 37/68/33
f 44/69/34 45/146/34 38/58/34
f 45/70/35 46/147/35 39/61/35
f 46/72/36 40/144/36 33/48/36
f 40/74/37 47/148/37 48/75/37
f 41/77/38 48/89/38 49/78/38
f 42/79/39 49/149/39 50/80/39
f 50/80/40 51/83/40 44/82/40
f 51/83/41 52/150/41 45/84/41
f 53/85/42 47/148/42 40/74/42
f 5/4/43 6/6/43 48/87/43
f 6/7/44 7/9/44 49/78/44
f 7/10/45 8/12/45 50/90/45
f 8/12/46 9/13/46 51/92/46
f 51/92/47 9/13/47 10/15/47
f 52/94/48 10/18/48 11/17/48
f 53/96/49 11/20/49 5/4/49
f 83/97/50 63/151/50 69/98/50
f 60/101/51 87/152/51 85/102/51
f 85/102/51 84/153/51 64/154/51
f 64/154/51 71/100/51 85/102/51
f 73/103/52 65/155/52 74/104/52
f 78/107/53 58/156/53 74/108/53
f 74/108/53 65/157/53 79/106/53
f 65/157/53 81/158/53 79/106/53
f 76/109/54 87/159/54 72/110/54
f 87/159/54 60/160/54 72/110/54
f 72/110/54 58/161/54 78/111/54
f 57/112/55 55/162/55 59/113/55
f 81/163/62 55/122/62 82/117/62
f 55/122/63 57/115/63 82/117/63
f 61/118/57 64/164/57 84/116/57
f 64/164/64 61/118/64 73/121/64
f 61/118/65 59/119/65 73/121/65
f 55/122/59 81/163/59 65/120/59
f 88/123/50 86/165/50 56/124/50
f 80/126/60 89/166/60 66/127/60
f 67/129/60 62/167/60 68/130/60
f 75/105/52 74/104/52 58/132/52
f 71/134/61 75/105/61 72/133/61
f 64/136/61 73/103/61 75/105/61
